# xmcd CD database file
#
# Track frame offsets:
#	150
#	12687
#	31815
#	43203
#	59124
#	75837
#	93561
#	110355
#
# Disc length: 1737 seconds
#
# Revision: 0
# Processed by: cddbd v1.5.2PL0 Copyright (c) Steve Scherf et al.
# Submitted via: CDex 1.50beta10
#
DISCID=6306c708
DTITLE=Carmen McRae - Masquerade
DYEAR=2006
DGENRE=Jazz
TTITLE0=Nice Work if You Can Get It
TTITLE1=Imagination
TTITLE2=How Could I Settle for Less
TTITLE3=Exactly Like You
TTITLE4=Masquerade
TTITLE5=All the Things You Are
TTITLE6=I Fall in Love too Easily
TTITLE7=Livin'
EXTD=YEAR: 2006
EXTT0=
EXTT1=
EXTT2=
EXTT3=
EXTT4=
EXTT5=
EXTT6=
EXTT7=
PLAYORDER=
